<?xml version="1.0" standalone="no"?>
<!DOCTYPE svg PUBLIC "-//W3C//DTD SVG 20010904//EN"
 "http://www.w3.org/TR/2001/REC-SVG-20010904/DTD/svg10.dtd">
<svg version="1.0" xmlns="http://www.w3.org/2000/svg"
 width="1080.000000pt" height="1080.000000pt" viewBox="0 0 1080.000000 1080.000000"
 preserveAspectRatio="xMidYMid meet">
<metadata>
Created by potrace 1.14, written by Peter Selinger 2001-2017
</metadata>
<g transform="translate(0.000000,1080.000000) scale(0.100000,-0.100000)"
fill="#000000" stroke="none">
<path d="M1130 5385 l0 -5075 1155 0 1155 0 2 2576 3 2575 1869 -2575 1869
-2576 1594 0 c1042 0 1594 3 1591 10 -1 5 -968 1165 -2148 2577 -1180 1411
-2144 2570 -2143 2574 2 5 824 1126 1828 2493 1004 1367 1825 2488 1825 2491
0 3 -629 5 -1399 5 l-1398 0 -1744 -2493 -1744 -2493 -3 2493 -2 2493 -1155 0
-1155 0 0 -5075z"/>
</g>
</svg>
